<svg width="300" height="64" viewBox="0 0 300 64" fill="none" xmlns="http://www.w3.org/2000/svg">
<g clip-path="url(#clip0_1802_18)">
<path d="M10.624 56.064C7.12533 56.064 4.736 54.0587 3.456 50.048C2.21867 46.0373 1.6 40.9173 1.6 34.688C1.6 30.6347 2.32533 26.8373 3.776 23.296C5.26933 19.712 7.53067 16.832 10.56 14.656C13.5893 12.4373 17.28 11.328 21.632 11.328C25.1307 11.328 28.3093 12.0747 31.168 13.568C34.0267 15.0187 36.288 17.1093 37.952 19.84C39.6587 22.5707 40.512 25.728 40.512 29.312C40.512 33.4507 39.68 36.928 38.016 39.744C36.352 42.56 34.1973 44.6507 31.552 46.016C28.9067 47.3813 26.112 48.064 23.168 48.064C20.7787 48.064 18.5813 47.6587 16.576 46.848C16.832 48.2133 16.96 49.2587 16.96 49.984C16.96 54.0373 14.848 56.064 10.624 56.064ZM22.272 38.144C23.808 38.144 25.1307 37.5893 26.24 36.48C27.392 35.328 27.968 34.0053 27.968 32.512C27.968 30.976 27.392 29.6533 26.24 28.544C25.1307 27.392 23.808 26.816 22.272 26.816C20.7787 26.816 19.456 27.392 18.304 28.544C17.152 29.6533 16.576 30.976 16.576 32.512C16.576 34.0053 17.152 35.328 18.304 36.48C19.456 37.5893 20.7787 38.144 22.272 38.144ZM57.2755 56C54.1608 56 51.4302 55.232 49.0835 53.696C46.7368 52.1173 44.9235 49.9413 43.6435 47.168C42.4062 44.352 41.7875 41.1093 41.7875 37.44C41.7875 33.856 42.3635 31.04 43.5155 28.992C44.6675 26.944 46.2675 25.92 48.3155 25.92C51.9422 25.92 53.7555 27.776 53.7555 31.488C53.7555 32.256 53.7342 32.9387 53.6915 33.536C53.6488 34.0907 53.6062 34.5813 53.5635 35.008C53.3928 36.7147 53.3075 38.08 53.3075 39.104C53.3075 40.9813 53.6915 42.4107 54.4595 43.392C55.2275 44.3733 56.1662 44.864 57.2755 44.864C58.4275 44.864 59.3662 44.3947 60.0915 43.456C60.8595 42.4747 61.2435 41.024 61.2435 39.104C61.2435 37.7387 61.1795 36.48 61.0515 35.328C61.0088 34.944 60.9662 34.3893 60.9235 33.664C60.8808 32.896 60.8595 32.192 60.8595 31.552C60.8595 27.7973 62.6728 25.92 66.2995 25.92C68.3475 25.92 69.9262 26.944 71.0355 28.992C72.1875 30.9973 72.7635 33.8133 72.7635 37.44C72.7635 43.1147 71.4408 47.6373 68.7955 51.008C66.1502 54.336 62.3102 56 57.2755 56ZM81.7605 56C79.0298 56 77.1952 54.4 76.2565 51.2C75.3605 48 74.9125 43.584 74.9125 37.952C74.9125 35.392 75.0192 33.2587 75.2325 31.552C75.4885 29.8027 76.0645 28.3307 76.9605 27.136C77.8992 25.8987 79.3285 25.28 81.2485 25.28C82.4432 25.28 83.4885 25.5573 84.3845 26.112C85.3232 26.6667 85.9205 27.456 86.1765 28.48C87.1152 27.6267 88.3312 26.9867 89.8245 26.56C91.3178 26.1333 92.9178 25.92 94.6245 25.92C95.9898 25.92 97.3765 26.2613 98.7845 26.944C100.235 27.6267 101.43 28.5653 102.369 29.76C103.35 30.912 103.841 32.1707 103.841 33.536C103.841 34.9013 103.35 36.1173 102.369 37.184C101.43 38.208 100.171 38.72 98.5925 38.72C98.0805 38.72 97.5898 38.656 97.1205 38.528C96.6938 38.4 96.3098 38.272 95.9685 38.144C95.1152 37.8027 94.4325 37.632 93.9205 37.632C92.2565 37.632 90.7845 38.2933 89.5045 39.616C88.2672 40.896 87.6485 42.56 87.6485 44.608C87.6485 46.8693 87.5632 48.7467 87.3925 50.24C87.2218 51.7333 86.7098 53.0773 85.8565 54.272C85.0032 55.424 83.6378 56 81.7605 56ZM112.635 56C109.905 56 108.07 54.4 107.132 51.2C106.236 48 105.788 43.584 105.788 37.952C105.788 35.392 105.894 33.2587 106.108 31.552C106.364 29.8027 106.94 28.3307 107.836 27.136C108.774 25.8987 110.204 25.28 112.124 25.28C113.318 25.28 114.364 25.5573 115.26 26.112C116.198 26.6667 116.796 27.456 117.052 28.48C117.99 27.6267 119.206 26.9867 120.7 26.56C122.193 26.1333 123.793 25.92 125.5 25.92C126.865 25.92 128.252 26.2613 129.66 26.944C131.11 27.6267 132.305 28.5653 133.244 29.76C134.225 30.912 134.716 32.1707 134.716 33.536C134.716 34.9013 134.225 36.1173 133.244 37.184C132.305 38.208 131.046 38.72 129.468 38.72C128.956 38.72 128.465 38.656 127.996 38.528C127.569 38.4 127.185 38.272 126.844 38.144C125.99 37.8027 125.308 37.632 124.796 37.632C123.132 37.632 121.66 38.2933 120.38 39.616C119.142 40.896 118.524 42.56 118.524 44.608C118.524 46.8693 118.438 48.7467 118.268 50.24C118.097 51.7333 117.585 53.0773 116.732 54.272C115.878 55.424 114.513 56 112.635 56ZM169.145 28.288C169.145 30.5067 168.099 32.0213 166.009 32.832C163.918 33.6 161.059 34.0053 157.433 34.048C157.39 35.1147 157.369 36.8427 157.369 39.232C157.369 41.664 157.539 43.392 157.881 44.416C158.094 45.1413 158.414 45.6107 158.841 45.824C159.31 46.0373 159.993 46.1867 160.889 46.272C161.187 46.3147 161.507 46.3787 161.849 46.464C162.233 46.5067 162.659 46.5707 163.129 46.656C164.11 46.8693 164.878 47.4027 165.433 48.256C165.987 49.0667 166.265 50.112 166.265 51.392C166.265 52.8427 165.518 53.9733 164.025 54.784C162.531 55.5947 160.483 56 157.881 56C155.491 56 153.209 55.3173 151.033 53.952C148.857 52.544 147.363 50.6667 146.553 48.32C145.699 45.8027 145.273 41.0453 145.273 34.048C142.286 33.9627 139.875 33.5787 138.041 32.896C136.248 32.1707 135.352 30.8907 135.352 29.056C135.352 26.752 136.206 25.216 137.913 24.448C139.619 23.6373 142.073 23.2107 145.273 23.168C145.401 19.7547 145.934 16.9173 146.873 14.656C147.811 12.352 149.497 11.2 151.929 11.2C154.403 11.2 156.003 12.2667 156.729 14.4C157.497 16.5333 157.838 19.456 157.753 23.168C161.635 23.1253 164.494 23.424 166.329 24.064C168.206 24.704 169.145 26.112 169.145 28.288ZM179.198 56C176.467 56 174.633 54.4 173.694 51.2C172.798 48 172.35 43.584 172.35 37.952C172.35 35.392 172.457 33.2587 172.67 31.552C172.926 29.8027 173.502 28.3307 174.398 27.136C175.337 25.8987 176.766 25.28 178.686 25.28C179.881 25.28 180.926 25.5573 181.822 26.112C182.761 26.6667 183.358 27.456 183.614 28.48C184.553 27.6267 185.769 26.9867 187.262 26.56C188.755 26.1333 190.355 25.92 192.062 25.92C193.427 25.92 194.814 26.2613 196.222 26.944C197.673 27.6267 198.867 28.5653 199.806 29.76C200.787 30.912 201.278 32.1707 201.278 33.536C201.278 34.9013 200.787 36.1173 199.806 37.184C198.867 38.208 197.609 38.72 196.03 38.72C195.518 38.72 195.027 38.656 194.558 38.528C194.131 38.4 193.747 38.272 193.406 38.144C192.553 37.8027 191.87 37.632 191.358 37.632C189.694 37.632 188.222 38.2933 186.942 39.616C185.705 40.896 185.086 42.56 185.086 44.608C185.086 46.8693 185.001 48.7467 184.83 50.24C184.659 51.7333 184.147 53.0773 183.294 54.272C182.441 55.424 181.075 56 179.198 56ZM214.058 56C210.73 56 207.999 55.2533 205.866 53.76C203.732 52.224 202.666 50.0267 202.666 47.168C202.666 44.6933 203.754 42.7307 205.93 41.28C208.106 39.8293 210.815 39.104 214.058 39.104C215.252 39.104 216.362 39.2107 217.385 39.424C218.452 39.5947 219.178 39.808 219.562 40.064C219.562 38.9973 219.114 38.1227 218.218 37.44C217.322 36.7147 215.956 36.352 214.122 36.352C213.311 36.352 212.65 36.416 212.138 36.544C211.626 36.672 211.071 36.864 210.474 37.12C209.876 37.376 209.322 37.568 208.81 37.696C208.34 37.824 207.7 37.888 206.89 37.888C205.524 37.888 204.458 37.5467 203.69 36.864C202.922 36.1387 202.538 35.0507 202.538 33.6C202.538 31.936 203.135 30.528 204.33 29.376C205.567 28.224 207.103 27.3707 208.938 26.816C210.772 26.2187 212.607 25.92 214.442 25.92C218.068 25.92 221.098 26.6027 223.53 27.968C226.004 29.2907 227.818 31.0613 228.97 33.28C230.164 35.4987 230.762 37.952 230.762 40.64C230.762 42.0907 230.634 43.4347 230.378 44.672C230.164 45.9093 229.866 46.8693 229.482 47.552C230.079 48.064 230.527 48.6613 230.826 49.344C231.167 50.0267 231.338 50.7307 231.338 51.456C231.338 52.6933 230.911 53.76 230.058 54.656C229.247 55.552 228.159 56 226.794 56C225.77 56 224.938 55.8507 224.298 55.552C223.658 55.2533 222.975 54.784 222.25 54.144C221.183 54.784 220.01 55.2533 218.73 55.552C217.492 55.8507 215.935 56 214.058 56ZM215.338 49.536C216.234 49.536 216.938 49.344 217.45 48.96C218.004 48.576 218.282 48.1067 218.282 47.552C218.282 46.9973 218.004 46.528 217.45 46.144C216.938 45.76 216.234 45.568 215.338 45.568C214.442 45.568 213.716 45.76 213.162 46.144C212.65 46.528 212.394 46.9973 212.394 47.552C212.394 48.1067 212.65 48.576 213.162 48.96C213.716 49.344 214.442 49.536 215.338 49.536ZM248.52 56C245.49 56 242.802 55.2747 240.456 53.824C238.152 52.3307 236.381 50.4107 235.144 48.064C233.906 45.6747 233.288 43.136 233.288 40.448C233.288 37.2907 233.928 34.624 235.208 32.448C236.53 30.2293 238.216 28.5867 240.264 27.52C242.354 26.4533 244.594 25.92 246.984 25.92C249.373 25.92 251.506 26.432 253.384 27.456C253.298 26.56 253.128 25.6 252.872 24.576C252.658 23.552 252.509 22.912 252.424 22.656C252.082 21.3333 251.826 20.224 251.656 19.328C251.485 18.432 251.4 17.536 251.4 16.64C251.4 14.848 251.933 13.4827 253 12.544C254.066 11.6053 255.346 11.136 256.84 11.136C259.229 11.136 261.17 12.3307 262.664 14.72C264.157 17.1093 265.224 20.0747 265.864 23.616C266.546 27.1573 266.888 30.7413 266.888 34.368C266.888 39.2747 265.757 44.1173 263.496 48.896C261.277 53.632 256.285 56 248.52 56ZM248.904 45.888C250.056 45.888 251.058 45.4613 251.912 44.608C252.765 43.712 253.192 42.6667 253.192 41.472C253.192 40.2773 252.765 39.232 251.912 38.336C251.058 37.44 250.056 36.992 248.904 36.992C247.752 36.992 246.728 37.44 245.832 38.336C244.978 39.232 244.552 40.2773 244.552 41.472C244.552 42.6667 244.978 43.712 245.832 44.608C246.728 45.4613 247.752 45.888 248.904 45.888ZM284.914 56C281.757 56 278.962 55.3813 276.53 54.144C274.098 52.9067 272.199 51.1787 270.834 48.96C269.511 46.6987 268.85 44.16 268.85 41.344C268.85 38.5707 269.511 36.0107 270.834 33.664C272.199 31.3173 274.077 29.44 276.466 28.032C278.855 26.624 281.565 25.92 284.594 25.92C287.325 25.92 289.735 26.4747 291.826 27.584C293.917 28.6933 295.517 30.1653 296.626 32C297.735 33.792 298.29 35.6693 298.29 37.632C298.29 40.832 297.074 43.1787 294.642 44.672C292.253 46.1227 289.394 46.848 286.066 46.848C283.847 46.848 281.97 46.5707 280.434 46.016C281.714 48.1067 283.826 49.152 286.77 49.152C287.965 49.152 289.245 49.0027 290.61 48.704C291.122 48.576 291.613 48.512 292.082 48.512C293.021 48.512 293.767 48.7467 294.322 49.216C294.919 49.6853 295.218 50.3253 295.218 51.136C295.218 52.4587 294.407 53.6107 292.786 54.592C291.165 55.5307 288.541 56 284.914 56ZM280.626 38.208C281.01 38.8053 281.522 39.2533 282.162 39.552C282.845 39.808 283.591 39.936 284.402 39.936C285.341 39.936 286.151 39.7227 286.834 39.296C287.559 38.8693 287.922 38.3147 287.922 37.632C287.922 36.864 287.602 36.2027 286.962 35.648C286.365 35.0933 285.49 34.816 284.338 34.816C283.186 34.816 282.269 35.1787 281.586 35.904C280.946 36.5867 280.626 37.3547 280.626 38.208Z" fill="#615FFF"/>
</g>
<defs>
<clipPath id="clip0_1802_18">
<rect width="300" height="64" fill="white"/>
</clipPath>
</defs>
</svg>
