<svg xmlns="http://www.w3.org/2000/svg" version="1.1" xmlns:xlink="http://www.w3.org/1999/xlink" xmlns:svgjs="http://svgjs.dev/svgjs" width="512" height="512"><svg width="512" height="512" viewBox="0 0 512 512" fill="none" xmlns="http://www.w3.org/2000/svg">
<g clip-path="url(#clip0_1802_2)">
<rect width="512" height="512" rx="96" fill="white"></rect>
<path d="M171.992 451.512C144.003 451.512 124.888 435.469 114.648 403.384C104.749 371.299 99.8 330.339 99.8 280.504C99.8 248.077 105.603 217.699 117.208 189.368C129.155 160.696 147.245 137.656 171.48 120.248C195.715 102.499 225.24 93.624 260.056 93.624C288.045 93.624 313.475 99.5973 336.344 111.544C359.213 123.149 377.304 139.875 390.616 161.72C404.269 183.565 411.096 208.824 411.096 237.496C411.096 270.605 404.44 298.424 391.128 320.952C377.816 343.48 360.579 360.205 339.416 371.128C318.253 382.051 295.896 387.512 272.344 387.512C253.229 387.512 235.651 384.269 219.608 377.784C221.656 388.707 222.68 397.069 222.68 402.872C222.68 435.299 205.784 451.512 171.992 451.512ZM265.176 308.152C277.464 308.152 288.045 303.715 296.92 294.84C306.136 285.624 310.744 275.043 310.744 263.096C310.744 250.808 306.136 240.227 296.92 231.352C288.045 222.136 277.464 217.528 265.176 217.528C253.229 217.528 242.648 222.136 233.432 231.352C224.216 240.227 219.608 250.808 219.608 263.096C219.608 275.043 224.216 285.624 233.432 294.84C242.648 303.715 253.229 308.152 265.176 308.152Z" fill="#615FFF"></path>
</g>
<defs>
<clipPath id="SvgjsClipPath1001">
<rect width="512" height="512" fill="white"></rect>
</clipPath>
</defs>
</svg><style>@media (prefers-color-scheme: light) { :root { filter: none; } }
@media (prefers-color-scheme: dark) { :root { filter: none; } }
</style></svg>